<mxfile host="app.diagrams.net" modified="2021-01-20T22:09:33.997Z" agent="5.0 (Windows NT 10.0; Win64; x64) AppleWebKit/537.36 (KHTML, like Gecko) Chrome/87.0.4280.141 Safari/537.36" etag="YX2L5lG-s-AVAUDz9Ymq" version="14.2.2" type="github">
  <diagram id="6L534ZP0BHDWNOPvy4SR" name="Page-1">
    <mxGraphModel dx="1278" dy="580" grid="1" gridSize="10" guides="1" tooltips="1" connect="1" arrows="1" fold="1" page="1" pageScale="1" pageWidth="1100" pageHeight="850" math="0" shadow="0">
      <root>
        <mxCell id="0" />
        <mxCell id="1" parent="0" />
        <mxCell id="rvhrm2gOj_G2KPWxH6oi-1" value="" style="ellipse;html=1;shape=startState;fillColor=#000000;strokeColor=#ff0000;" vertex="1" parent="1">
          <mxGeometry x="120" y="90" width="30" height="30" as="geometry" />
        </mxCell>
        <mxCell id="rvhrm2gOj_G2KPWxH6oi-4" value="" style="edgeStyle=orthogonalEdgeStyle;html=1;verticalAlign=bottom;endArrow=open;endSize=8;strokeColor=#ff0000;exitX=1;exitY=0.5;exitDx=0;exitDy=0;" edge="1" source="rvhrm2gOj_G2KPWxH6oi-1" parent="1">
          <mxGeometry relative="1" as="geometry">
            <mxPoint x="700" y="105" as="targetPoint" />
            <mxPoint x="470" y="105" as="sourcePoint" />
            <Array as="points" />
          </mxGeometry>
        </mxCell>
        <mxCell id="rvhrm2gOj_G2KPWxH6oi-5" value="Dateipfad angeben" style="rounded=1;whiteSpace=wrap;html=1;arcSize=40;fontColor=#000000;fillColor=#ffffc0;strokeColor=#ff0000;" vertex="1" parent="1">
          <mxGeometry x="700" y="85" width="120" height="40" as="geometry" />
        </mxCell>
        <mxCell id="rvhrm2gOj_G2KPWxH6oi-6" value="" style="edgeStyle=orthogonalEdgeStyle;html=1;verticalAlign=bottom;endArrow=open;endSize=8;strokeColor=#ff0000;" edge="1" source="rvhrm2gOj_G2KPWxH6oi-5" parent="1">
          <mxGeometry relative="1" as="geometry">
            <mxPoint x="760" y="190" as="targetPoint" />
          </mxGeometry>
        </mxCell>
        <mxCell id="rvhrm2gOj_G2KPWxH6oi-7" value="Wahl bestätigen" style="rounded=1;whiteSpace=wrap;html=1;arcSize=40;fontColor=#000000;fillColor=#ffffc0;strokeColor=#ff0000;" vertex="1" parent="1">
          <mxGeometry x="700" y="190" width="120" height="40" as="geometry" />
        </mxCell>
        <mxCell id="rvhrm2gOj_G2KPWxH6oi-8" value="" style="edgeStyle=orthogonalEdgeStyle;html=1;verticalAlign=bottom;endArrow=open;endSize=8;strokeColor=#ff0000;" edge="1" source="rvhrm2gOj_G2KPWxH6oi-7" parent="1">
          <mxGeometry relative="1" as="geometry">
            <mxPoint x="760" y="290" as="targetPoint" />
          </mxGeometry>
        </mxCell>
        <mxCell id="rvhrm2gOj_G2KPWxH6oi-9" value="Condition" style="rhombus;whiteSpace=wrap;html=1;fillColor=#ffffc0;strokeColor=#ff0000;" vertex="1" parent="1">
          <mxGeometry x="720" y="290" width="80" height="40" as="geometry" />
        </mxCell>
        <mxCell id="rvhrm2gOj_G2KPWxH6oi-10" value="no" style="edgeStyle=orthogonalEdgeStyle;html=1;align=left;verticalAlign=bottom;endArrow=open;endSize=8;strokeColor=#ff0000;" edge="1" source="rvhrm2gOj_G2KPWxH6oi-9" parent="1" target="rvhrm2gOj_G2KPWxH6oi-16">
          <mxGeometry x="-0.5556" y="10" relative="1" as="geometry">
            <mxPoint x="970" y="360" as="targetPoint" />
            <mxPoint as="offset" />
          </mxGeometry>
        </mxCell>
        <mxCell id="rvhrm2gOj_G2KPWxH6oi-11" value="yes" style="edgeStyle=orthogonalEdgeStyle;html=1;align=left;verticalAlign=top;endArrow=open;endSize=8;strokeColor=#ff0000;" edge="1" source="rvhrm2gOj_G2KPWxH6oi-9" parent="1">
          <mxGeometry x="-0.3846" y="-30" relative="1" as="geometry">
            <mxPoint x="500" y="350" as="targetPoint" />
            <mxPoint as="offset" />
          </mxGeometry>
        </mxCell>
        <mxCell id="rvhrm2gOj_G2KPWxH6oi-12" value="Festlegung der Zugangsdaten" style="rounded=1;whiteSpace=wrap;html=1;arcSize=40;fontColor=#000000;fillColor=#ffffc0;strokeColor=#ff0000;" vertex="1" parent="1">
          <mxGeometry x="440" y="350" width="120" height="40" as="geometry" />
        </mxCell>
        <mxCell id="rvhrm2gOj_G2KPWxH6oi-13" value="" style="edgeStyle=orthogonalEdgeStyle;html=1;verticalAlign=bottom;endArrow=open;endSize=8;strokeColor=#ff0000;" edge="1" source="rvhrm2gOj_G2KPWxH6oi-12" parent="1">
          <mxGeometry relative="1" as="geometry">
            <mxPoint x="500" y="450" as="targetPoint" />
          </mxGeometry>
        </mxCell>
        <mxCell id="rvhrm2gOj_G2KPWxH6oi-14" value="neuen Datenbank erzeugen(die Kopie des markierten Eintrags,.... Kategorien, enthält)" style="rounded=1;whiteSpace=wrap;html=1;arcSize=40;fontColor=#000000;fillColor=#ffffc0;strokeColor=#ff0000;" vertex="1" parent="1">
          <mxGeometry x="285" y="520" width="150" height="60" as="geometry" />
        </mxCell>
        <mxCell id="rvhrm2gOj_G2KPWxH6oi-15" value="" style="edgeStyle=orthogonalEdgeStyle;html=1;verticalAlign=bottom;endArrow=open;endSize=8;strokeColor=#ff0000;" edge="1" source="rvhrm2gOj_G2KPWxH6oi-14" parent="1" target="rvhrm2gOj_G2KPWxH6oi-18">
          <mxGeometry relative="1" as="geometry">
            <mxPoint x="450" y="700" as="targetPoint" />
          </mxGeometry>
        </mxCell>
        <mxCell id="rvhrm2gOj_G2KPWxH6oi-16" value="Abbruch" style="rounded=1;whiteSpace=wrap;html=1;arcSize=40;fontColor=#000000;fillColor=#ffffc0;strokeColor=#ff0000;" vertex="1" parent="1">
          <mxGeometry x="910" y="470" width="120" height="40" as="geometry" />
        </mxCell>
        <mxCell id="rvhrm2gOj_G2KPWxH6oi-17" value="" style="edgeStyle=orthogonalEdgeStyle;html=1;verticalAlign=bottom;endArrow=open;endSize=8;strokeColor=#ff0000;entryX=1;entryY=0.5;entryDx=0;entryDy=0;" edge="1" source="rvhrm2gOj_G2KPWxH6oi-16" parent="1" target="rvhrm2gOj_G2KPWxH6oi-25">
          <mxGeometry relative="1" as="geometry">
            <mxPoint x="970" y="455" as="targetPoint" />
          </mxGeometry>
        </mxCell>
        <mxCell id="rvhrm2gOj_G2KPWxH6oi-18" value="&amp;nbsp;unter dem gewählten Pfad persistieren" style="rounded=1;whiteSpace=wrap;html=1;arcSize=40;fontColor=#000000;fillColor=#ffffc0;strokeColor=#ff0000;" vertex="1" parent="1">
          <mxGeometry x="300" y="640" width="120" height="40" as="geometry" />
        </mxCell>
        <mxCell id="rvhrm2gOj_G2KPWxH6oi-19" value="Condition" style="rhombus;whiteSpace=wrap;html=1;fillColor=#ffffc0;strokeColor=#ff0000;" vertex="1" parent="1">
          <mxGeometry x="460" y="450" width="80" height="40" as="geometry" />
        </mxCell>
        <mxCell id="rvhrm2gOj_G2KPWxH6oi-20" value="no" style="edgeStyle=orthogonalEdgeStyle;html=1;align=left;verticalAlign=bottom;endArrow=open;endSize=8;strokeColor=#ff0000;entryX=0.5;entryY=0;entryDx=0;entryDy=0;" edge="1" source="rvhrm2gOj_G2KPWxH6oi-19" parent="1" target="rvhrm2gOj_G2KPWxH6oi-23">
          <mxGeometry x="-1" relative="1" as="geometry">
            <mxPoint x="640" y="520" as="targetPoint" />
          </mxGeometry>
        </mxCell>
        <mxCell id="rvhrm2gOj_G2KPWxH6oi-21" value="yes" style="edgeStyle=orthogonalEdgeStyle;html=1;align=left;verticalAlign=top;endArrow=open;endSize=8;strokeColor=#ff0000;exitX=0;exitY=0.5;exitDx=0;exitDy=0;" edge="1" source="rvhrm2gOj_G2KPWxH6oi-19" parent="1">
          <mxGeometry x="-0.6" y="-20" relative="1" as="geometry">
            <mxPoint x="360" y="520" as="targetPoint" />
            <Array as="points">
              <mxPoint x="360" y="470" />
            </Array>
            <mxPoint as="offset" />
          </mxGeometry>
        </mxCell>
        <mxCell id="rvhrm2gOj_G2KPWxH6oi-23" value="Abbruch&amp;nbsp;" style="rounded=1;whiteSpace=wrap;html=1;arcSize=40;fontColor=#000000;fillColor=#ffffc0;strokeColor=#ff0000;" vertex="1" parent="1">
          <mxGeometry x="580" y="540" width="120" height="40" as="geometry" />
        </mxCell>
        <mxCell id="rvhrm2gOj_G2KPWxH6oi-24" value="" style="edgeStyle=orthogonalEdgeStyle;html=1;verticalAlign=bottom;endArrow=open;endSize=8;strokeColor=#ff0000;entryX=0;entryY=0.5;entryDx=0;entryDy=0;" edge="1" source="rvhrm2gOj_G2KPWxH6oi-23" parent="1" target="rvhrm2gOj_G2KPWxH6oi-25">
          <mxGeometry relative="1" as="geometry">
            <mxPoint x="640" y="620" as="targetPoint" />
          </mxGeometry>
        </mxCell>
        <mxCell id="rvhrm2gOj_G2KPWxH6oi-25" value="Merge" style="rhombus;whiteSpace=wrap;html=1;fillColor=#ffffc0;strokeColor=#ff0000;" vertex="1" parent="1">
          <mxGeometry x="800" y="640" width="80" height="40" as="geometry" />
        </mxCell>
        <mxCell id="rvhrm2gOj_G2KPWxH6oi-28" value="Exportabbruch" style="rounded=1;whiteSpace=wrap;html=1;arcSize=40;fontColor=#000000;fillColor=#ffffc0;strokeColor=#ff0000;" vertex="1" parent="1">
          <mxGeometry x="780" y="730" width="120" height="40" as="geometry" />
        </mxCell>
        <mxCell id="rvhrm2gOj_G2KPWxH6oi-29" value="" style="edgeStyle=orthogonalEdgeStyle;html=1;verticalAlign=bottom;endArrow=open;endSize=8;strokeColor=#ff0000;entryX=1;entryY=0.5;entryDx=0;entryDy=0;" edge="1" source="rvhrm2gOj_G2KPWxH6oi-28" parent="1" target="rvhrm2gOj_G2KPWxH6oi-35">
          <mxGeometry relative="1" as="geometry">
            <mxPoint x="670" y="750" as="targetPoint" />
            <Array as="points">
              <mxPoint x="740" y="750" />
              <mxPoint x="740" y="750" />
            </Array>
          </mxGeometry>
        </mxCell>
        <mxCell id="rvhrm2gOj_G2KPWxH6oi-35" value="Merge" style="rhombus;whiteSpace=wrap;html=1;fillColor=#ffffc0;strokeColor=#ff0000;" vertex="1" parent="1">
          <mxGeometry x="520" y="730" width="80" height="40" as="geometry" />
        </mxCell>
        <mxCell id="rvhrm2gOj_G2KPWxH6oi-39" value="" style="edgeStyle=orthogonalEdgeStyle;html=1;verticalAlign=bottom;endArrow=open;endSize=8;strokeColor=#ff0000;" edge="1" parent="1">
          <mxGeometry relative="1" as="geometry">
            <mxPoint x="840" y="730" as="targetPoint" />
            <mxPoint x="839.5" y="680" as="sourcePoint" />
            <Array as="points">
              <mxPoint x="840" y="690" />
              <mxPoint x="840" y="690" />
            </Array>
          </mxGeometry>
        </mxCell>
        <mxCell id="rvhrm2gOj_G2KPWxH6oi-41" value="" style="edgeStyle=orthogonalEdgeStyle;html=1;verticalAlign=bottom;endArrow=open;endSize=8;strokeColor=#ff0000;entryX=0;entryY=0.5;entryDx=0;entryDy=0;" edge="1" parent="1" target="rvhrm2gOj_G2KPWxH6oi-35">
          <mxGeometry relative="1" as="geometry">
            <mxPoint x="359.5" y="710" as="targetPoint" />
            <mxPoint x="360" y="680" as="sourcePoint" />
            <Array as="points">
              <mxPoint x="360" y="750" />
            </Array>
          </mxGeometry>
        </mxCell>
        <mxCell id="rvhrm2gOj_G2KPWxH6oi-43" value="" style="edgeStyle=orthogonalEdgeStyle;html=1;verticalAlign=bottom;endArrow=open;endSize=8;strokeColor=#ff0000;" edge="1" parent="1">
          <mxGeometry relative="1" as="geometry">
            <mxPoint x="560" y="860" as="targetPoint" />
            <mxPoint x="560" y="770" as="sourcePoint" />
          </mxGeometry>
        </mxCell>
        <mxCell id="rvhrm2gOj_G2KPWxH6oi-44" value="" style="ellipse;html=1;shape=endState;fillColor=#000000;strokeColor=#ff0000;" vertex="1" parent="1">
          <mxGeometry x="545" y="860" width="30" height="30" as="geometry" />
        </mxCell>
      </root>
    </mxGraphModel>
  </diagram>
</mxfile>
